# xmcd
#
# Track frame offsets:
#	150
#	23507
#	52329
#	81126
#	100380
#	128878
#
# Disc length: 2121 seconds
#
# Revision: 0
# Processed by: cddbd v1.5.2PL0 Copyright (c) Steve Scherf et al.
# Submitted via: EasyCDDAExtractor 9.0.0.1
#
DISCID=49084706
DTITLE=Kiss - Scandinavium Gothenburg 27-10-84 Disc 2
DYEAR=1984
DGENRE=Hard Rock
TTITLE0=I've Had Enough (Into The Fire)
TTITLE1=Love Gun
TTITLE2=Rock And Roll All Nite
TTITLE3=Medley - Jam
TTITLE4=Black Diamond
TTITLE5=Lick It Up
EXTD=
EXTT0=
EXTT1=
EXTT2=
EXTT3=
EXTT4=
EXTT5=
PLAYORDER=
